:SAMPLES-PER-SECOND 30
:FULLY-SPECIFIED
:DEGREES
1175
root  64.778 38.0122 23.085 174.657 53.4905 172.523
RightUpLeg  -22.6678 -2.35343 -7.1075
RightLeg  34.9972 5.30501 3.72006
RightFoot  -5.20097 1.26675 -23.8894
RightToes  -1.33073e-015 0 -3.6325e-017
Spine  23.0766 -3.13712 7.53628
Spine1  6.54748 -2.66441 1.82439
HEad  -22.7276 -10.4995 1.62296
LeftShoulder1  1.72028 -2.08419 -24.5716
LeftArm  -8.89237 -47.7694 -38.1095
LeftForeArm  -16.033 -37.5663 -9.51124
LeftHand  -0.147181 2.21 5.08935
RightShoulder  0.693392 -0.372098 15.474
RightArm  -10.2648 53.0543 34.2635
RightForeArm  -28.5576 38.1261 10.2955
RightHand  -0.474028 6.67412 -4.9034
LeftUpLeg  -21.442 -3.27119 2.23744
LeftLeg  9.93157 -9.98878 -0.724432
LeftFoot  0.643768 0.940187 -8.90883
LeftToes  -1.93726e-010 2.42366e-011 2.16268e-013
1176
root  64.9942 37.9101 22.5822 175.101 56.0213 172.783
RightUpLeg  -22.8843 -0.819009 -7.04544
RightLeg  35.5398 6.10327 4.40126
RightFoot  -6.18266 1.01536 -23.055
RightToes  -1.33073e-015 0 -3.6325e-017
Spine  22.7765 -2.60421 6.78151
Spine1  6.77887 -2.34708 2.02494
HEad  -23.8961 -9.17237 1.22672
LeftShoulder1  1.73345 -2.1152 -24.6527
LeftArm  -9.14879 -49.9047 -36.0543
LeftForeArm  -17.615 -35.6103 -8.98572
LeftHand  -0.120469 3.15632 5.5537
RightShoulder  0.716364 -0.201237 14.9702
RightArm  -9.45847 55.0398 35.1845
RightForeArm  -29.9864 35.1815 9.41943
RightHand  -0.409758 7.14196 -4.14828
LeftUpLeg  -21.8688 -2.52388 1.93808
LeftLeg  8.58171 -13.6049 -0.805125
LeftFoot  5.14906 1.1089 -8.08271
LeftToes  -1.93726e-010 2.42366e-011 2.16268e-013
1177
root  65.1608 37.8556 22.027 176.007 58.5724 173.894
RightUpLeg  -22.4825 1.28696 -6.70171
RightLeg  35.2767 6.64256 4.76214
RightFoot  -6.90638 0.795285 -21.4741
RightToes  -1.33073e-015 0 -3.6325e-017
Spine  22.9467 -2.37426 6.67193
Spine1  6.85784 -2.12609 2.10219
HEad  -23.8928 -8.89684 1.21912
LeftShoulder1  1.76608 -2.32215 -24.0895
LeftArm  -10.3224 -50.9444 -34.3317
LeftForeArm  -17.7785 -34.1427 -8.56453
LeftHand  -0.0932382 3.45429 4.67273
RightShoulder  0.795819 0.215301 14.6454
RightArm  -7.88351 56.9106 35.7278
RightForeArm  -32.1428 32.5465 8.72777
RightHand  -0.436355 7.69895 -4.21183
LeftUpLeg  -22.0496 -2.77261 2.65497
LeftLeg  9.94704 -14.9761 -1.72427
LeftFoot  9.20134 0.833349 -4.85814
LeftToes  -1.93726e-010 2.42366e-011 2.16268e-013
1178
root  65.232 37.8596 21.4401 175.928 61.5279 174.351
RightUpLeg  -21.9047 2.9585 -6.78081
RightLeg  35.1898 7.61437 5.47682
RightFoot  -7.03906 0.786577 -21.8842
RightToes  -1.33073e-015 0 -3.6325e-017
Spine  24.0945 -2.00737 5.71531
Spine1  6.16585 -1.92409 2.55115
HEad  -23.6435 -8.43203 1.15024
LeftShoulder1  1.70099 -2.03557 -24.4984
LeftArm  -10.8153 -52.2562 -32.0406
LeftForeArm  -19.2984 -32.3455 -8.12709
LeftHand  -0.0755671 3.76702 4.22106
RightShoulder  0.88545 0.765977 13.8897
RightArm  -4.9072 58.1452 37.0389
RightForeArm  -34.7413 31.0472 8.40714
RightHand  -0.598788 8.20555 -5.48116
LeftUpLeg  -22.0282 -3.88191 3.73392
LeftLeg  12.8639 -10.2058 -1.89759
LeftFoot  6.44855 0.836115 -5.57649
LeftToes  -1.93726e-010 2.42366e-011 2.16268e-013
1179
root  65.3696 37.8351 20.9451 176.023 63.7059 173.526
RightUpLeg  -22.9347 4.85164 -7.58008
RightLeg  35.6126 7.68281 5.61142
RightFoot  -7.31107 0.718898 -21.5268
RightToes  -1.33073e-015 0 -3.6325e-017
Spine  23.8391 -1.27428 3.834
Spine1  6.16189 -1.89357 3.70395
HEad  -24.7512 -7.34288 1.03473
LeftShoulder1  1.74821 -2.31511 -23.7963
LeftArm  -12.2174 -53.2969 -30.3725
LeftForeArm  -20.0102 -30.9464 -7.78372
LeftHand  -0.084724 3.4604 4.19083
RightShoulder  0.907541 0.987984 13.2888
RightArm  -3.73709 59.1985 38.0103
RightForeArm  -36.4759 30.0694 8.20248
RightHand  -0.546423 8.12057 -5.0596
LeftUpLeg  -23.1261 -2.11423 3.29479
LeftLeg  15.0277 -9.12013 -2.47349
LeftFoot  5.64701 0.599384 -4.24915
LeftToes  -1.93726e-010 2.42366e-011 2.16268e-013
1180
root  65.4879 37.891 20.3843 176.967 65.8632 174.481
RightUpLeg  -22.4431 6.86048 -7.62251
RightLeg  34.6576 7.98028 5.63763
RightFoot  -7.23932 0.696761 -20.5592
RightToes  -1.33073e-015 0 -3.6325e-017
Spine  23.9286 -1.08919 3.87062
Spine1  6.61115 -1.4825 3.06801
HEad  -25.9315 -6.72626 1.19046
LeftShoulder1  1.78569 -2.4133 -23.9407
LeftArm  -12.5543 -55.0758 -28.6678
LeftForeArm  -21.1181 -29.3337 -7.40856
LeftHand  -0.041195 4.80659 3.94041
RightShoulder  0.918452 1.09572 13.0423
RightArm  -3.40359 59.9871 38.5491
RightForeArm  -36.9963 28.9526 7.92962
RightHand  -0.575268 7.93321 -5.37238
LeftUpLeg  -23.0839 0.440921 3.12534
LeftLeg  16.6028 -9.35199 -2.816
LeftFoot  4.54512 0.478484 -3.62856
LeftToes  -1.93726e-010 2.42366e-011 2.16268e-013
1181
root  65.5379 38.0172 19.8375 177.635 68.0232 175.114
RightUpLeg  -21.8145 8.97238 -7.92107
RightLeg  33.0723 8.14169 5.4231
RightFoot  -6.89011 0.714499 -19.3609
RightToes  -1.33073e-015 0 -3.6325e-017
Spine  24.8949 -1.0822 2.87927
Spine1  5.82278 -1.56478 3.09077
HEad  -26.8019 -4.78314 0.393829
LeftShoulder1  1.74136 -2.35348 -23.4682
LeftArm  -14.1582 -54.3884 -27.0046
LeftForeArm  -20.9865 -28.977 -7.31346
LeftHand  -0.0595196 4.05798 3.51729
RightShoulder  1.0062 1.65548 12.4989
RightArm  0.376468 61.2674 40.238
RightForeArm  -40.4034 27.0669 7.55046
RightHand  -0.616555 8.51924 -5.50959
LeftUpLeg  -22.615 1.86106 2.8729
LeftLeg  16.9828 -8.57705 -2.61886
LeftFoot  4.41924 0.215286 -1.75076
LeftToes  -1.93726e-010 2.42366e-011 2.16268e-013
1182
root  65.6127 38.1414 19.3219 178.374 69.8344 175.24
RightUpLeg  -21.726 10.6051 -8.56892
RightLeg  31.4944 8.43714 5.30194
RightFoot  -6.55035 0.725281 -18.1947
RightToes  -1.33073e-015 0 -3.6325e-017
Spine  24.2033 -0.894905 3.15794
Spine1  6.91783 -1.02948 1.94186
HEad  -28.118 -4.59134 0.201965
LeftShoulder1  1.83465 -2.61842 -23.7244
LeftArm  -14.1339 -56.0582 -25.4591
LeftForeArm  -22.0974 -28.0448 -7.12613
LeftHand  -0.0470621 4.54871 3.54345
RightShoulder  0.968401 1.58137 11.9991
RightArm  0.619043 61.8092 39.6945
RightForeArm  -42.0527 26.8275 7.54154
RightHand  -0.719721 8.55026 -6.35757
LeftUpLeg  -22.4878 2.52003 2.51014
LeftLeg  16.77 -7.40949 -2.1871
LeftFoot  4.08345 0.129852 -1.14188
LeftToes  -1.93726e-010 2.42366e-011 2.16268e-013
